{"asset":{"version":"2.0","generator":"Local interaction fixture - NOT engineering CAD"},"scene":0,"scenes":[{"nodes":[0,1,2,3]}],"nodes":[{"mesh":0,"scale":[2.4,0.18,1.7],"translation":[0,0,0]},{"mesh":0,"scale":[2.4,1.6,0.18],"translation":[0,0.89,-0.76]},{"mesh":1,"scale":[0.32,0.75,1.15],"translation":[-0.78,0.45,-0.05]},{"mesh":1,"scale":[0.32,0.75,1.15],"translation":[0.78,0.45,-0.05]}],"meshes":[{"primitives":[{"attributes":{"POSITION":0,"NORMAL":1},"indices":2,"material":0}]},{"primitives":[{"attributes":{"POSITION":0,"NORMAL":1},"indices":2,"material":1}]}],"materials":[{"pbrMetallicRoughness":{"baseColorFactor":[0.52,0.55,0.58,1],"metallicFactor":0.65,"roughnessFactor":0.35}},{"pbrMetallicRoughness":{"baseColorFactor":[0.65,0.22,0.06,1],"metallicFactor":0.25,"roughnessFactor":0.5}}],"buffers":[{"uri":"data:application/octet-stream;base64,","byteLength":648}],"bufferViews":[{"buffer":0,"byteOffset":0,"byteLength":288,"target":34962},{"buffer":0,"byteOffset":288,"byteLength":288,"target":34962},{"buffer":0,"byteOffset":576,"byteLength":72,"target":34963}],"accessors":[{"bufferView":0,"componentType":5126,"count":24,"type":"VEC3","min":[-0.5,-0.5,-0.5],"max":[0.5,0.5,0.5]},{"bufferView":1,"componentType":5126,"count":24,"type":"VEC3"},{"bufferView":2,"componentType":5123,"count":36,"type":"SCALAR"}]}
